<svg xmlns="http://www.w3.org/2000/svg" id="Camada_2" viewBox="0 0 100 100"><defs><style>.cls-1{fill:#fff;}.cls-2{fill:#3386c7;}.cls-3{fill:#e6e000;}.cls-4{fill:#fbbb29;}.cls-5{fill:#27bdbe;}.cls-6{fill:#eb5883;}</style></defs><g id="leiaute"><g><g><path class="cls-4" d="M0,50c0,27.62,22.39,50,50,50V50H0Z"></path><path class="cls-6" d="M50,0C22.39,0,0,22.39,0,50H50V0Z"></path><path class="cls-2" d="M50,100c27.62,0,50-22.38,50-50H50v50Z"></path><path class="cls-3" d="M50,0V50h50C100,22.39,77.62,0,50,0Z"></path></g><path class="cls-5" d="M50,94c24.3,0,44-19.71,44-43.99S74.3,6,50,6,6,25.69,6,50.01s19.7,43.99,44,43.99"></path><g><path class="cls-1" d="M50,33.5c5.8,0,10.5-4.7,10.5-10.5,0-5.8-4.7-10.5-10.5-10.5s-10.5,4.7-10.5,10.5c0,5.8,4.7,10.5,10.5,10.5Z"></path><path class="cls-1" d="M71.63,28.56c-4.97,2.77-9.92,5.47-14.84,8.23h-.07s-6.7,.02-6.7,.02h-6.7s-.07-.02-.07-.02c-4.92-2.76-9.86-5.46-14.84-8.23-5.86-3.27-10.87,4.59-4.31,8.29l15.63,8.8v13.47h-.02l-6.41,21c-.74,3.39,.39,6.51,3.79,7.25,3.4,.74,5.74-1.64,6.48-5.02l6.3-16.17h.25l6.3,16.17c.74,3.38,3.07,5.75,6.48,5.02,3.4-.74,4.54-3.86,3.79-7.25l-6.41-21h.02v-13.47s15.63-8.8,15.63-8.8c6.48-3.85,1.55-11.56-4.31-8.29Z"></path></g></g></g></svg>